<svg width="44" height="24" viewBox="0 0 44 24" fill="none" xmlns="http://www.w3.org/2000/svg">
<rect width="12" height="8" fill="#E8E8E8"/>
<rect y="16" width="12" height="8" fill="#E8E8E8"/>
<rect x="32" y="16" width="12" height="8" fill="#E8E8E8"/>
<rect x="32" width="12" height="8" fill="#E8E8E8"/>
<rect x="16" y="8" width="12" height="8" fill="#E8E8E8"/>
<rect x="11" y="19" width="4" height="2" fill="#E8E8E8"/>
<rect x="13" y="11" width="4" height="2" fill="#E8E8E8"/>
<rect x="11" y="3" width="4" height="2" fill="#E8E8E8"/>
<rect x="13" y="5" width="2" height="14" fill="#E8E8E8"/>
<rect x="33" y="5" width="4" height="2" transform="rotate(180 33 5)" fill="#E8E8E8"/>
<rect x="31" y="13" width="4" height="2" transform="rotate(180 31 13)" fill="#E8E8E8"/>
<rect x="33" y="21" width="4" height="2" transform="rotate(180 33 21)" fill="#E8E8E8"/>
<rect x="31" y="19" width="2" height="14" transform="rotate(180 31 19)" fill="#E8E8E8"/>
</svg>
