<svg width="63" height="37" viewBox="0 0 63 37" fill="none" xmlns="http://www.w3.org/2000/svg">
<rect x="13" y="30" width="37" height="6" rx="2" fill="#F7B141"/>
<rect x="13" y="19" width="37" height="9" rx="2" fill="#F7B141"/>
<path d="M29.529 7.65977C30.3146 6.42231 32.1204 6.42231 32.906 7.65978L40.7141 19.9593C41.5594 21.2909 40.6028 23.0312 39.0256 23.0312H23.4094C21.8322 23.0312 20.8756 21.2909 21.7209 19.9593L29.529 7.65977Z" fill="#F7B141"/>
<path d="M9.75851 10.4571C9.41455 8.60364 11.591 7.34705 13.0242 8.57163L25.3263 19.0835C26.3759 19.9804 26.2227 21.6458 25.027 22.3361L15.6774 27.7341C14.4818 28.4244 12.9629 27.7244 12.711 26.367L9.75851 10.4571Z" fill="#F7B141"/>
<path d="M53.2415 10.4571C53.5854 8.60364 51.409 7.34705 49.9758 8.57163L37.6737 19.0835C36.6241 19.9804 36.7773 21.6458 37.973 22.3361L47.3226 27.7341C48.5182 28.4244 50.0371 27.7244 50.289 26.367L53.2415 10.4571Z" fill="#F7B141"/>
</svg>
