<svg width="172" height="47" viewBox="0 0 172 47" fill="none" xmlns="http://www.w3.org/2000/svg">
<path d="M26.3847 34V14.9091H29.2185V17.7926H29.4173C29.7654 16.848 30.3951 16.0816 31.3065 15.4933C32.218 14.9049 33.2455 14.6108 34.3889 14.6108C34.6044 14.6108 34.8737 14.6149 35.1968 14.6232C35.52 14.6315 35.7644 14.6439 35.9301 14.6605V17.6435C35.8307 17.6186 35.6028 17.5813 35.2465 17.5316C34.8985 17.4736 34.5298 17.4446 34.1404 17.4446C33.2123 17.4446 32.3837 17.6393 31.6546 18.0288C30.9337 18.4099 30.3619 18.9402 29.9394 19.6197C29.5251 20.2908 29.3179 21.0573 29.3179 21.919V34H26.3847ZM39.4071 34V14.9091H42.3404V34H39.4071ZM40.8986 11.7273C40.3269 11.7273 39.8339 11.5326 39.4196 11.1431C39.0135 10.7537 38.8105 10.2855 38.8105 9.73864C38.8105 9.19176 39.0135 8.7236 39.4196 8.33416C39.8339 7.94472 40.3269 7.75 40.8986 7.75C41.4703 7.75 41.9592 7.94472 42.3652 8.33416C42.7795 8.7236 42.9867 9.19176 42.9867 9.73864C42.9867 10.2855 42.7795 10.7537 42.3652 11.1431C41.9592 11.5326 41.4703 11.7273 40.8986 11.7273ZM56.2142 14.9091V17.3949H45.923V14.9091H56.2142ZM49.0054 34V12.2741C49.0054 11.1804 49.2623 10.2689 49.776 9.53977C50.2897 8.8106 50.9568 8.26373 51.7771 7.89915C52.5974 7.53456 53.4633 7.35227 54.3747 7.35227C55.0956 7.35227 55.6839 7.41027 56.1396 7.52628C56.5954 7.64228 56.9351 7.75 57.1588 7.84943L56.3136 10.3849C56.1645 10.3352 55.9574 10.2731 55.6922 10.1985C55.4353 10.1239 55.0956 10.0866 54.673 10.0866C53.7036 10.0866 53.0034 10.3311 52.5725 10.82C52.1499 11.3088 51.9386 12.0256 51.9386 12.9702V34H49.0054ZM68.6277 14.9091V17.3949H58.7342V14.9091H68.6277ZM61.6177 10.3352H64.551V28.5312C64.551 29.3598 64.6711 29.9813 64.9114 30.3956C65.16 30.8016 65.4748 31.075 65.856 31.2159C66.2454 31.3485 66.6556 31.4148 67.0865 31.4148C67.4096 31.4148 67.6748 31.3982 67.8819 31.3651C68.0891 31.3236 68.2548 31.2905 68.3791 31.2656L68.9757 33.9006C68.7768 33.9751 68.4992 34.0497 68.1429 34.1243C67.7866 34.2071 67.335 34.2486 66.7882 34.2486C65.9596 34.2486 65.1475 34.0704 64.3521 33.7141C63.5649 33.3578 62.9103 32.8151 62.3883 32.0859C61.8746 31.3568 61.6177 30.437 61.6177 29.3267V10.3352Z" fill="#04DC82"/>
<path d="M98.6165 39.9836C97.5795 39.9836 96.6385 39.7883 95.7933 39.3977C94.9482 39 94.277 38.4282 93.7798 37.6825C93.2827 36.9296 93.0341 36.0206 93.0341 34.9552C93.0341 34.0177 93.2188 33.2578 93.5881 32.6754C93.9574 32.0859 94.451 31.6242 95.0689 31.2904C95.6868 30.9566 96.3686 30.7081 97.1143 30.5447C97.8672 30.3742 98.6236 30.2393 99.3835 30.1399C100.378 30.012 101.184 29.9161 101.802 29.8522C102.427 29.7812 102.881 29.664 103.165 29.5007C103.457 29.3373 103.602 29.0532 103.602 28.6484V28.5632C103.602 27.512 103.315 26.6953 102.739 26.1129C102.171 25.5305 101.308 25.2393 100.151 25.2393C98.9503 25.2393 98.0092 25.5021 97.3274 26.0277C96.6456 26.5532 96.1662 27.1143 95.8892 27.7109L93.5028 26.8586C93.929 25.8643 94.4972 25.0902 95.2074 24.5362C95.9247 23.9751 96.706 23.5845 97.5511 23.3643C98.4034 23.137 99.2415 23.0234 100.065 23.0234C100.591 23.0234 101.195 23.0873 101.876 23.2152C102.565 23.3359 103.229 23.588 103.869 23.9715C104.515 24.3551 105.051 24.9339 105.477 25.7081C105.903 26.4822 106.116 27.5191 106.116 28.8188V39.6001H103.602V37.3842H103.474C103.304 37.7393 103.02 38.1193 102.622 38.5241C102.224 38.9289 101.695 39.2734 101.035 39.5575C100.374 39.8416 99.5682 39.9836 98.6165 39.9836ZM99 37.7251C99.9943 37.7251 100.832 37.5298 101.514 37.1392C102.203 36.7485 102.722 36.2443 103.07 35.6264C103.425 35.0085 103.602 34.3586 103.602 33.6768V31.3757C103.496 31.5035 103.261 31.6207 102.899 31.7272C102.544 31.8267 102.132 31.9154 101.663 31.9936C101.202 32.0646 100.751 32.1285 100.31 32.1853C99.8771 32.235 99.5256 32.2777 99.2557 32.3132C98.6023 32.3984 97.9915 32.5369 97.4233 32.7286C96.8622 32.9133 96.4077 33.1938 96.0597 33.5703C95.7188 33.9396 95.5483 34.4438 95.5483 35.0831C95.5483 35.9566 95.8714 36.6171 96.5178 37.0646C97.1712 37.5049 97.9986 37.7251 99 37.7251ZM117.822 23.2365V25.3671H109.342V23.2365H117.822ZM111.813 19.316H114.328V34.9126C114.328 35.6228 114.431 36.1555 114.637 36.5106C114.85 36.8586 115.119 37.093 115.446 37.2137C115.78 37.3274 116.132 37.3842 116.501 37.3842C116.778 37.3842 117.005 37.37 117.183 37.3416C117.36 37.3061 117.502 37.2777 117.609 37.2563L118.12 39.5149C117.95 39.5788 117.712 39.6427 117.406 39.7066C117.101 39.7777 116.714 39.8132 116.245 39.8132C115.535 39.8132 114.839 39.6605 114.157 39.3551C113.482 39.0497 112.921 38.5845 112.474 37.9595C112.034 37.3345 111.813 36.5461 111.813 35.5944V19.316ZM126.419 39.9836C125.382 39.9836 124.441 39.7883 123.596 39.3977C122.751 39 122.08 38.4282 121.583 37.6825C121.085 36.9296 120.837 36.0206 120.837 34.9552C120.837 34.0177 121.021 33.2578 121.391 32.6754C121.76 32.0859 122.254 31.6242 122.872 31.2904C123.49 30.9566 124.171 30.7081 124.917 30.5447C125.67 30.3742 126.426 30.2393 127.186 30.1399C128.181 30.012 128.987 29.9161 129.605 29.8522C130.23 29.7812 130.684 29.664 130.968 29.5007C131.259 29.3373 131.405 29.0532 131.405 28.6484V28.5632C131.405 27.512 131.117 26.6953 130.542 26.1129C129.974 25.5305 129.111 25.2393 127.953 25.2393C126.753 25.2393 125.812 25.5021 125.13 26.0277C124.448 26.5532 123.969 27.1143 123.692 27.7109L121.306 26.8586C121.732 25.8643 122.3 25.0902 123.01 24.5362C123.727 23.9751 124.509 23.5845 125.354 23.3643C126.206 23.137 127.044 23.0234 127.868 23.0234C128.394 23.0234 128.997 23.0873 129.679 23.2152C130.368 23.3359 131.032 23.588 131.671 23.9715C132.318 24.3551 132.854 24.9339 133.28 25.7081C133.706 26.4822 133.919 27.5191 133.919 28.8188V39.6001H131.405V37.3842H131.277C131.107 37.7393 130.823 38.1193 130.425 38.5241C130.027 38.9289 129.498 39.2734 128.838 39.5575C128.177 39.8416 127.371 39.9836 126.419 39.9836ZM126.803 37.7251C127.797 37.7251 128.635 37.5298 129.317 37.1392C130.006 36.7485 130.524 36.2443 130.872 35.6264C131.227 35.0085 131.405 34.3586 131.405 33.6768V31.3757C131.298 31.5035 131.064 31.6207 130.702 31.7272C130.347 31.8267 129.935 31.9154 129.466 31.9936C129.004 32.0646 128.553 32.1285 128.113 32.1853C127.68 32.235 127.328 32.2777 127.058 32.3132C126.405 32.3984 125.794 32.5369 125.226 32.7286C124.665 32.9133 124.21 33.1938 123.862 33.5703C123.521 33.9396 123.351 34.4438 123.351 35.0831C123.351 35.9566 123.674 36.6171 124.32 37.0646C124.974 37.5049 125.801 37.7251 126.803 37.7251ZM143.324 39.9836C142.287 39.9836 141.346 39.7883 140.5 39.3977C139.655 39 138.984 38.4282 138.487 37.6825C137.99 36.9296 137.741 36.0206 137.741 34.9552C137.741 34.0177 137.926 33.2578 138.295 32.6754C138.664 32.0859 139.158 31.6242 139.776 31.2904C140.394 30.9566 141.076 30.7081 141.821 30.5447C142.574 30.3742 143.331 30.2393 144.091 30.1399C145.085 30.012 145.891 29.9161 146.509 29.8522C147.134 29.7812 147.588 29.664 147.873 29.5007C148.164 29.3373 148.309 29.0532 148.309 28.6484V28.5632C148.309 27.512 148.022 26.6953 147.446 26.1129C146.878 25.5305 146.015 25.2393 144.858 25.2393C143.657 25.2393 142.716 25.5021 142.034 26.0277C141.353 26.5532 140.873 27.1143 140.596 27.7109L138.21 26.8586C138.636 25.8643 139.204 25.0902 139.914 24.5362C140.632 23.9751 141.413 23.5845 142.258 23.3643C143.11 23.137 143.949 23.0234 144.772 23.0234C145.298 23.0234 145.902 23.0873 146.583 23.2152C147.272 23.3359 147.936 23.588 148.576 23.9715C149.222 24.3551 149.758 24.9339 150.184 25.7081C150.61 26.4822 150.824 27.5191 150.824 28.8188V39.6001H148.309V37.3842H148.181C148.011 37.7393 147.727 38.1193 147.329 38.5241C146.931 38.9289 146.402 39.2734 145.742 39.5575C145.081 39.8416 144.275 39.9836 143.324 39.9836ZM143.707 37.7251C144.701 37.7251 145.539 37.5298 146.221 37.1392C146.91 36.7485 147.429 36.2443 147.777 35.6264C148.132 35.0085 148.309 34.3586 148.309 33.6768V31.3757C148.203 31.5035 147.968 31.6207 147.606 31.7272C147.251 31.8267 146.839 31.9154 146.37 31.9936C145.909 32.0646 145.458 32.1285 145.017 32.1853C144.584 32.235 144.233 32.2777 143.963 32.3132C143.309 32.3984 142.699 32.5369 142.13 32.7286C141.569 32.9133 141.115 33.1938 140.767 33.5703C140.426 33.9396 140.255 34.4438 140.255 35.0831C140.255 35.9566 140.578 36.6171 141.225 37.0646C141.878 37.5049 142.706 37.7251 143.707 37.7251ZM157.927 29.7563V39.6001H155.412V23.2365H157.841V25.7933H158.055C158.438 24.9623 159.02 24.2947 159.802 23.7904C160.583 23.2791 161.591 23.0234 162.827 23.0234C163.935 23.0234 164.905 23.2507 165.736 23.7052C166.567 24.1527 167.213 24.8345 167.675 25.7507C168.136 26.6598 168.367 27.8103 168.367 29.2024V39.6001H165.853V29.3728C165.853 28.0873 165.519 27.0859 164.851 26.3686C164.184 25.6441 163.268 25.2819 162.103 25.2819C161.3 25.2819 160.583 25.4559 159.951 25.8039C159.326 26.1519 158.832 26.6598 158.47 27.3274C158.108 27.995 157.927 28.8046 157.927 29.7563Z" fill="#04DC82"/>
<line x1="5.5" y1="13" x2="5.5" y2="28" stroke="#04DC82" stroke-width="3"/>
<line x1="5.5" y1="28" x2="5.5" y2="35" stroke="#04DC82" stroke-width="3"/>
<line x1="10" y1="32.5" y2="32.5" stroke="#04DC82" stroke-width="3"/>
<line x1="46" y1="38.5" x2="10" y2="38.5" stroke="#04DC82" stroke-width="3"/>
<line x1="50.5" y1="34" x2="50.5" y2="19" stroke="#04DC82" stroke-width="3"/>
<line x1="77" y1="16" x2="56" y2="16" stroke="#04DC82" stroke-width="3"/>
<path d="M50.5 19.5C50.5001 16 52 16.0001 56 16.0001" stroke="#04DC82" stroke-width="3"/>
<path d="M50.5 34C50.5 37 49.5 38.5 46 38.5" stroke="#04DC82" stroke-width="3"/>
<path d="M10 32.5C18 32.5 21.5 27 21.5 20.5" stroke="#04DC82" stroke-width="3"/>
<path d="M77 38.5C85 38.5 88.5 33.5 88.5 27" stroke="#04DC82" stroke-width="3"/>
<path d="M77 16C85 16 88.5 21 88.5 27.5" stroke="#04DC82" stroke-width="3"/>
<path d="M10 8.5C18 8.5 21.5 14 21.5 20.5" stroke="#04DC82" stroke-width="3"/>
<path d="M10 8.5C5 8.5 5.5 9.20417 5.5 13.4999" stroke="#04DC82" stroke-width="3"/>
<line x1="72.5" y1="17" x2="72.5" y2="33" stroke="#04DC82" stroke-width="3"/>
<path d="M77 38.5C72.5692 38.5 72.5 37.7731 72.5 33" stroke="#04DC82" stroke-width="3"/>
<path d="M5.5 34.5C5.5 38.5 5.70423 38.5 10 38.5" stroke="#04DC82" stroke-width="3"/>
</svg>
